<svg xmlns="http://www.w3.org/2000/svg"  viewBox="0 0 464.061 464.061" width="58px" height="58px"><path fill="#585966" d="M366.714,404.891c-34.574-56.89-32.011-52.776-32.37-52.94c0.062-0.156,1.459,6.757-52.25-252.83	c0-0.1,2.07,4.182-43.26-89.29c-4.719-9.731-17.06-12.86-25.85-6.56l-93.09,66.79c-12.63,9.06-6.22,29,9.33,29h26.07	c0,0.1,1.818-3.274-39.6,71.86c-1.62,2.94-2.6,6.18-2.89,9.52l-15,173c-0.58,6.63,1.63,13.2,6.09,18.15l29.96,26.78l-34.71,38.99	c-9.27,10.29-1.96,26.7,11.89,26.7h165.962c3.11,0,5.938-1.802,7.251-4.622l10.697-22.958l60.05-7.39	C366.524,427.671,372.747,414.819,366.714,404.891z"/><path fill="#cbe3fa" d="M207.314,364.901v99.16l-103.42-92.47c-4.46-4.95-6.67-11.52-6.09-18.15l15-173	c0.29-3.34,1.27-6.58,2.89-9.52l39.6-71.8c0-0.1-2.241-0.06,47.07-0.06c0,0.102,0.833-5.334-36.81,235.45	c-1.28,8.19,3.38,16.15,11.15,19.03L207.314,364.901z"/><path fill="#6e6f80" d="M366.714,404.891c6.03,9.93-0.19,22.78-11.72,24.2l-60.05,7.39	c42.431-91.033,39.267-84.591,39.64-84.42L366.714,404.891z"/><path fill="#6e6f80" d="M282.094,99.121l52.29,252.73l-58.37,32.11c-4.44,2.44-9.72,2.83-14.47,1.07l-84.84-31.49	c-7.77-2.88-12.43-10.84-11.15-19.03l36.81-235.39C202.364,99.015,282.094,99.021,282.094,99.121z"/><polygon fill="#585966" points="207.314,464.061 183.304,464.061 123.214,410.321 133.854,398.371"/><path fill="#585966" d="M344.414,368.221l-30.74,65.95l-18.73,2.31c42.431-91.033,39.267-84.591,39.64-84.42L344.414,368.221	z"/><path fill="#42434d" d="M207.314,464.061h-20.955c-1.968,0-3.866-0.725-5.333-2.037l-51.862-46.382	c-3.288-2.941-3.575-7.988-0.642-11.283l5.332-5.988L207.314,464.061z"/><path fill="#42434d" d="M342.605,372.101l-27.059,58.052c-1.165,2.499-3.535,4.223-6.272,4.56l-14.331,1.768l39.4-84.53	c0.357,0.163-0.61-1.287,7.845,12.613C343.579,366.849,343.735,369.677,342.605,372.101z"/></svg>