<svg xmlns="http://www.w3.org/2000/svg"  viewBox="0 0 480.06 480.06" width="60px" height="60px"><path fill="#585966" d="M374.718,412.89c-34.574-56.89-32.011-52.776-32.37-52.94c0.062-0.156,1.459,6.757-52.25-252.83	c0-0.1,2.07,4.182-43.26-89.29c-4.719-9.731-17.06-12.86-25.85-6.56l-93.09,66.79c-12.63,9.06-6.22,29,9.33,29h26.07	c0,0.1,1.818-3.274-39.6,71.86c-1.62,2.94-2.6,6.18-2.89,9.52l-15,173c-0.58,6.63,1.63,13.2,6.09,18.15l29.96,26.78l-34.71,38.99	c-9.27,10.29-1.96,26.7,11.89,26.7H285c3.11,0,5.938-1.802,7.251-4.622l10.697-22.958l60.05-7.39	C374.528,435.67,380.751,422.817,374.718,412.89z"/><path fill="#cbe3fa" d="M215.318,372.9v99.16l-103.42-92.47c-4.46-4.95-6.67-11.52-6.09-18.15l15-173	c0.29-3.34,1.27-6.58,2.89-9.52l39.6-71.8c0-0.1-2.241-0.06,47.07-0.06c0,0.102,0.833-5.334-36.81,235.45	c-1.28,8.19,3.38,16.15,11.15,19.03L215.318,372.9z"/><path fill="#6e6f80" d="M374.718,412.89c6.03,9.93-0.19,22.78-11.72,24.2l-60.05,7.39	c42.431-91.033,39.267-84.591,39.64-84.42L374.718,412.89z"/><path fill="#6e6f80" d="M290.098,107.12l52.29,252.73l-58.37,32.11c-4.44,2.44-9.72,2.83-14.47,1.07l-84.84-31.49	c-7.77-2.88-12.43-10.84-11.15-19.03l36.81-235.39C210.368,107.013,290.098,107.02,290.098,107.12z"/><polygon fill="#585966" points="215.318,472.06 191.308,472.06 131.218,418.319 141.858,406.37"/><path fill="#585966" d="M352.418,376.22l-30.74,65.95l-18.73,2.31c42.431-91.033,39.267-84.591,39.64-84.42L352.418,376.22z"/><path fill="#42434d" d="M215.318,472.06h-20.955c-1.968,0-3.866-0.725-5.333-2.037l-51.862-46.382	c-3.288-2.941-3.575-7.988-0.642-11.283l5.332-5.988L215.318,472.06z"/><path fill="#42434d" d="M350.61,380.1l-27.059,58.052c-1.165,2.499-3.535,4.223-6.272,4.56l-14.331,1.768l39.4-84.53	c0.357,0.164-0.61-1.287,7.845,12.613C351.583,374.847,351.739,377.676,350.61,380.1z"/><path d="M321.188,405.347c-4.001-1.866-8.764-0.135-10.63,3.872L285,464.06h-61.679v-50.742c0-4.418-3.582-8-8-8s-8,3.582-8,8 v40.858l-89.74-80.237c-2.793-3.251-4.177-7.532-3.807-11.81l15.001-173.001c0.193-2.238,0.843-4.372,1.929-6.343l24.126-43.747 c2.134-3.869,0.728-8.735-3.142-10.868c-3.866-2.134-8.734-0.727-10.868,3.142l-24.126,43.747 c-2.174,3.939-3.472,8.209-3.859,12.688l-15,172.999c-0.765,8.812,2.195,17.633,8.121,24.2c0.448,0.496-5.804-5.128,88.415,79.113 h-75.33c-6.939,0-10.58-8.203-5.918-13.384l11.443-12.853c2.938-3.3,2.646-8.356-0.654-11.294 c-3.302-2.94-8.357-2.645-11.295,0.655l-11.415,12.82c-13.908,15.452-2.93,40.055,17.839,40.055h171.057 c3.109,0,5.938-1.802,7.251-4.621l27.711-59.462C326.926,411.973,325.193,407.213,321.188,405.347z"/><path d="M381.551,408.736l-31.647-52.043l-51.891-250.809c-0.263-1.765,2.636,4.591-43.978-91.543 c-6.873-14.174-24.877-18.774-37.705-9.567l-93.095,66.784c-18.936,13.584-9.351,43.501,13.99,43.501h99.621c4.418,0,8-3.582,8-8 s-3.582-8-8-8h-99.621c-5.41,0-7.197-4.249-7.616-5.551c-0.419-1.303-1.443-5.796,2.952-8.95l93.095-66.784 c4.757-3.412,11.432-1.708,13.982,3.548l42.807,88.289l50.913,246.08l-53.2,29.26c-2.403,1.323-5.253,1.533-7.825,0.578 l-84.836-31.485c-4.188-1.555-6.726-5.885-6.035-10.298l31.536-201.665c0.683-4.365-2.303-8.458-6.668-9.141 c-4.367-0.683-8.458,2.303-9.141,6.668l-31.536,201.665c-1.861,11.9,4.984,23.579,16.277,27.771l84.836,31.485 c6.729,2.499,14.438,2.107,21.103-1.559l51.72-28.446l28.292,46.525c3.007,4.943-0.05,11.383-5.857,12.097l-13.185,1.623 c-4.385,0.54-7.502,4.532-6.963,8.918c0.535,4.346,4.48,7.498,8.918,6.963l13.185-1.623 C381.28,442.896,390.597,423.611,381.551,408.736z"/></svg>